<?xml version="1.0" encoding="UTF-8"?>
<svg width="784px" height="427px" viewBox="0 0 784 427" version="1.1" xmlns="http://www.w3.org/2000/svg" xmlns:xlink="http://www.w3.org/1999/xlink">
    <!-- Generator: Sketch 61.2 (89653) - https://sketch.com -->
    <title>text</title>
    <desc>Created with Sketch.</desc>
    <g id="Welcome" stroke="none" stroke-width="1" fill="none" fill-rule="evenodd">
        <g id="Desktop-HD" transform="translate(-337.000000, -916.000000)" fill="#2639A3">
            <g id="About" transform="translate(-1.000000, 796.000000)">
                <g id="text" transform="translate(338.000000, 120.000000)">
                    <path d="M49.1022949,426.289062 C59.7370605,426.289062 68.15625,423.670654 74.3598633,418.433838 C80.5634766,413.197021 84.1755371,405.771484 85.1960449,396.157227 L85.1960449,396.157227 L80.845459,396.157227 C78.7507324,413.398438 68.1696777,422.019043 49.1022949,422.019043 C39.4343262,422.019043 31.6193848,418.635254 25.6574707,411.867676 C19.6955566,405.100098 16.7145996,396.103516 16.7145996,384.87793 L16.7145996,384.87793 L16.7145996,370.214844 C16.9294434,359.418945 19.9909668,350.731201 25.8991699,344.151611 C31.807373,337.572021 39.5686035,334.282227 49.1828613,334.282227 C58.6896973,334.282227 66.0749512,336.470947 71.338623,340.848389 C76.6022949,345.22583 79.7712402,351.604004 80.845459,359.98291 L80.845459,359.98291 L85.1960449,359.98291 C84.1218262,350.314941 80.4560547,342.875977 74.1987305,337.666016 C67.9414062,332.456055 59.6027832,329.851074 49.1828613,329.851074 C41.9318848,329.851074 35.5134277,331.569824 29.9274902,335.007324 C24.3415527,338.444824 20.0178223,343.33252 16.9562988,349.67041 C13.8947754,356.008301 12.3640137,363.232422 12.3640137,371.342773 L12.3640137,371.342773 L12.3640137,384.313965 C12.3640137,397.150879 15.7478027,407.355957 22.5153809,414.929199 C29.282959,422.502441 38.1452637,426.289062 49.1022949,426.289062 Z M141.834229,426.289062 C149.35376,426.289062 156.013916,424.58374 161.814697,421.173096 C167.615479,417.762451 172.086914,412.861328 175.229004,406.469727 C178.371094,400.078125 179.942139,392.773438 179.942139,384.555664 L179.942139,384.555664 L179.942139,372.148438 C179.942139,359.150391 176.4375,348.851318 169.428223,341.251221 C162.418945,333.651123 153.194092,329.851074 141.753662,329.851074 C134.234131,329.851074 127.573975,331.569824 121.773193,335.007324 C115.972412,338.444824 111.500977,343.359375 108.358887,349.750977 C105.216797,356.142578 103.645752,363.447266 103.645752,371.665039 L103.645752,371.665039 L103.645752,385.844727 C103.914307,398.09082 107.512939,407.893066 114.44165,415.251465 C121.370361,422.609863 130.501221,426.289062 141.834229,426.289062 Z M141.834229,421.938477 C131.414307,421.938477 123.169678,418.54126 117.100342,411.746826 C111.031006,404.952393 107.996338,395.888672 107.996338,384.555664 L107.996338,384.555664 L107.996338,371.906738 C107.996338,360.197754 111.044434,350.999756 117.140625,344.312744 C123.236816,337.625732 131.441162,334.282227 141.753662,334.282227 C152.173584,334.282227 160.431641,337.652588 166.527832,344.393311 C172.624023,351.134033 175.672119,360.170898 175.672119,371.503906 L175.672119,371.503906 L175.672119,384.233398 C175.672119,395.888672 172.637451,405.08667 166.568115,411.827393 C160.498779,418.568115 152.25415,421.938477 141.834229,421.938477 Z M207.25415,425 L207.173584,337.504883 L248.262451,425 L251.726807,425 L292.976807,337.182617 L292.89624,425 L297.246826,425 L297.246826,331.140137 L291.043213,331.140137 L249.954346,418.393555 L208.946045,331.140137 L202.903564,331.140137 L202.903564,425 L207.25415,425 Z M386.272705,425 L386.272705,420.649414 L329.070557,420.649414 L329.070557,378.352051 L379.182861,378.352051 L379.182861,374.001465 L329.070557,374.001465 L329.070557,335.571289 L386.192139,335.571289 L386.192139,331.140137 L324.719971,331.140137 L324.719971,425 L386.272705,425 Z M475.781982,425 L475.781982,335.571289 L512.197998,335.571289 L512.197998,331.140137 L434.934814,331.140137 L434.934814,335.571289 L471.431396,335.571289 L471.431396,425 L475.781982,425 Z M533.709229,425 L533.709229,385.76416 L568.111084,385.76416 L594.456299,425 L599.048584,425 L599.048584,424.194336 L572.46167,384.716797 C578.853271,383.535156 584.184082,380.554199 588.454102,375.773926 C592.724121,370.993652 594.859131,365.43457 594.859131,359.09668 C594.859131,350.50293 591.797607,343.695068 585.674561,338.673096 C579.551514,333.651123 571.521729,331.140137 561.585205,331.140137 L561.585205,331.140137 L529.358643,331.140137 L529.358643,425 L533.709229,425 Z M564.727295,381.413574 L533.709229,381.413574 L533.709229,335.571289 L562.14917,335.571289 C570.904053,335.678711 577.805908,337.880859 582.854736,342.177734 C587.903564,346.474609 590.427979,352.114258 590.427979,359.09668 C590.427979,365.595703 588.05127,370.939941 583.297852,375.129395 C578.544434,379.318848 572.354248,381.413574 564.727295,381.413574 L564.727295,381.413574 Z M655.606201,426.289062 C666.079834,426.289062 674.445312,423.536377 680.702637,418.031006 C686.959961,412.525635 690.115479,404.831543 690.169189,394.94873 L690.169189,394.94873 L690.169189,331.140137 L685.818604,331.140137 L685.818604,395.19043 C685.711182,403.408203 682.904785,409.934082 677.399414,414.768066 C671.894043,419.602051 664.629639,422.019043 655.606201,422.019043 L655.606201,422.019043 L653.189209,421.938477 C644.595459,421.455078 637.801025,418.782959 632.805908,413.922119 C627.810791,409.061279 625.313232,402.65625 625.313232,394.707031 L625.313232,394.707031 L625.313232,331.140137 L621.043213,331.140137 L621.043213,394.707031 C621.043213,404.643555 624.158447,412.391357 630.388916,417.950439 C636.619385,423.509521 645.025146,426.289062 655.606201,426.289062 Z M777.986572,425 L777.986572,420.649414 L720.784424,420.649414 L720.784424,378.352051 L770.896729,378.352051 L770.896729,374.001465 L720.784424,374.001465 L720.784424,335.571289 L777.906006,335.571289 L777.906006,331.140137 L716.433838,331.140137 L716.433838,425 L777.986572,425 Z" id="COMETRUE" fill-rule="nonzero"></path>
                    <path d="M55.8338867,281 L55.8338867,242.376465 L96.8314453,174.625488 L84.322168,174.625488 L50.4466797,232.697754 L16.6625,174.625488 L4.15322266,174.625488 L44.8768555,241.919922 L44.8768555,281 L55.8338867,281 Z M151.364996,282.460938 C165.000412,282.460938 175.866135,277.986816 183.962164,269.038574 C192.058192,260.090332 196.106207,248.128906 196.106207,233.154297 L196.106207,233.154297 L196.106207,220.827637 C195.740972,206.279134 191.464686,194.698161 183.277349,186.084717 C175.090012,177.471273 164.391688,173.164551 151.182378,173.164551 C142.355881,173.164551 134.51856,175.218994 127.670416,179.327881 C120.822271,183.436768 115.572027,189.234863 111.919683,196.722168 C108.267339,204.209473 106.441168,212.853353 106.441168,222.653809 L106.441168,222.653809 L106.441168,232.697754 C106.441168,247.85498 110.534836,259.938151 118.722173,268.947266 C126.909511,277.95638 137.790451,282.460938 151.364996,282.460938 Z M151.364996,273.056152 C140.894944,273.056152 132.585862,269.495117 126.43775,262.373047 C120.289638,255.250977 117.215582,245.511393 117.215582,233.154297 L117.215582,233.154297 L117.215582,223.019043 C117.215582,210.23584 120.274419,200.328857 126.392095,193.298096 C132.509771,186.267334 140.773199,182.751953 151.182378,182.751953 C161.713303,182.751953 170.037603,186.267334 176.155279,193.298096 C182.272955,200.328857 185.331793,210.053223 185.331793,222.471191 L185.331793,222.471191 L185.331793,232.789062 C185.331793,245.511393 182.318609,255.403158 176.292242,262.464355 C170.265875,269.525553 161.956793,273.056152 151.364996,273.056152 Z M256.666124,282.460938 C269.084093,282.460938 278.945421,279.219482 286.250109,272.736572 C293.554796,266.253662 297.20714,257.472819 297.20714,246.394043 L297.20714,246.394043 L297.20714,174.625488 L286.341417,174.625488 L286.341417,246.667969 C286.280545,255.068359 283.602159,261.596924 278.306261,266.253662 C273.010362,270.9104 265.796984,273.23877 256.666124,273.23877 C247.474392,273.23877 240.215359,270.864746 234.889025,266.116699 C229.56269,261.368652 226.899523,254.794434 226.899523,246.394043 L226.899523,246.394043 L226.899523,174.625488 L216.125109,174.625488 L216.125109,247.124512 C216.307726,258.081543 220.020942,266.710205 227.264757,273.010498 C234.508572,279.310791 244.309028,282.460938 256.666124,282.460938 Z M332.200651,281 L332.200651,238.267578 L364.523893,238.267578 L391.277311,281 L402.964811,281 L402.964811,280.086914 L374.841764,235.802246 C381.84209,233.854329 387.472786,230.278076 391.733854,225.073486 C395.994922,219.868896 398.125456,213.766439 398.125456,206.766113 C398.125456,196.78304 394.670947,188.930501 387.76193,183.208496 C380.852913,177.486491 371.280729,174.625488 359.045378,174.625488 L359.045378,174.625488 L321.334928,174.625488 L321.334928,281 L332.200651,281 Z M361.054167,228.954102 L332.200651,228.954102 L332.200651,184.030273 L359.319303,184.030273 C368.084928,184.091146 374.917855,186.160807 379.818083,190.239258 C384.718311,194.317708 387.168424,199.917969 387.168424,207.040039 C387.168424,213.492513 384.794401,218.757975 380.046354,222.836426 C375.298307,226.914876 368.967578,228.954102 361.054167,228.954102 L361.054167,228.954102 Z M478.339041,280 L478.339041,173.625488 L467.38201,173.625488 L467.38201,280 L478.339041,280 Z M538.990267,280 C548.547233,279.878255 557.05415,277.778158 564.511019,273.699707 C571.967887,269.621257 577.720329,263.914469 581.768343,256.579346 C585.816357,249.244222 587.840365,240.859049 587.840365,231.423828 L587.840365,231.423828 L587.840365,221.471191 C587.71862,212.27946 585.572868,204.016032 581.403109,196.680908 C577.23335,189.345785 571.435254,183.669434 564.008822,179.651855 C556.582389,175.634277 548.181999,173.625488 538.80765,173.625488 L538.80765,173.625488 L506.484408,173.625488 L506.484408,280 L538.990267,280 Z M538.16849,270.777832 L517.35013,270.777832 L517.35013,183.030273 L538.533724,183.030273 C550.403841,183.030273 559.77819,186.591309 566.656771,193.713379 C573.535352,200.835449 576.974642,210.331543 576.974642,222.20166 L576.974642,222.20166 L576.974642,230.875977 C576.974642,243.233073 573.459261,252.972656 566.428499,260.094727 C559.397738,267.216797 549.977734,270.777832 538.16849,270.777832 L538.16849,270.777832 Z M681.180067,280 L681.180067,270.777832 L620.459852,270.777832 L620.459852,229.506348 L673.144911,229.506348 L673.144911,220.192871 L620.459852,220.192871 L620.459852,183.030273 L680.814833,183.030273 L680.814833,173.625488 L609.59413,173.625488 L609.59413,280 L681.180067,280 Z M698.185786,280 L709.508051,251.603027 L761.097407,251.603027 L772.328364,280 L783.559321,280 L740.644282,173.625488 L730.143793,173.625488 L686.86352,280 L698.185786,280 Z M757.353754,242.289551 L713.160395,242.289551 L735.348383,186.682617 L757.353754,242.289551 Z" id="YOURIDEA" fill-rule="nonzero"></path>
                    <path d="M172.998047,41 L172.998047,27.0253906 L172.675781,11.3222656 L185.976562,41 L188.613281,41 L201.972656,11.1171875 L201.650391,27.0253906 L201.650391,41 L205.136719,41 L205.136719,6.86914062 L200.478516,6.86914062 L187.294922,36.1367188 L174.111328,6.86914062 L169.511719,6.86914062 L169.511719,41 L172.998047,41 Z M228.3,41 L228.3,28.6074219 L241.454297,6.86914062 L237.440625,6.86914062 L226.571484,25.5019531 L215.731641,6.86914062 L211.717969,6.86914062 L224.784375,28.4609375 L224.784375,41 L228.3,41 Z M267.566016,41 L267.566016,12.3769531 L288.132422,41 L291.61875,41 L291.61875,6.86914062 L288.132422,6.86914062 L288.132422,35.4921875 L267.566016,6.86914062 L264.079687,6.86914062 L264.079687,41 L267.566016,41 Z M301.862109,41 L305.494922,31.8886719 L322.047656,31.8886719 L325.651172,41 L329.254687,41 L315.485156,6.86914062 L312.116016,6.86914062 L298.229297,41 L301.862109,41 Z M320.846484,28.9003906 L306.666797,28.9003906 L313.785937,11.0585938 L320.846484,28.9003906 Z M339.410156,41 L339.410156,27.0253906 L339.087891,11.3222656 L352.388672,41 L355.025391,41 L368.384766,11.1171875 L368.0625,27.0253906 L368.0625,41 L371.548828,41 L371.548828,6.86914062 L366.890625,6.86914062 L353.707031,36.1367188 L340.523438,6.86914062 L335.923828,6.86914062 L335.923828,41 L339.410156,41 Z M404.995313,41 L404.995313,38.0410156 L385.512891,38.0410156 L385.512891,24.7988281 L402.417188,24.7988281 L402.417188,21.8105469 L385.512891,21.8105469 L385.512891,9.88671875 L404.878125,9.88671875 L404.878125,6.86914062 L382.026563,6.86914062 L382.026563,41 L404.995313,41 Z M432.952734,41 L432.952734,6.86914062 L429.437109,6.86914062 L429.437109,41 L432.952734,41 Z M455.530078,41.46875 C459.299609,41.46875 462.361133,40.6582031 464.714648,39.0371094 C467.068164,37.4160156 468.244922,35.2382812 468.244922,32.5039062 C468.244922,30.7851562 467.815234,29.2861328 466.955859,28.0068359 C466.096484,26.7275391 464.82207,25.6289062 463.132617,24.7109375 C461.443164,23.7929688 458.943164,22.9140625 455.632617,22.0742188 C452.32207,21.234375 449.953906,20.3017578 448.528125,19.2763672 C447.102344,18.2509766 446.389453,16.9277344 446.389453,15.3066406 C446.389453,13.5488281 447.2,12.1230469 448.821094,11.0292969 C450.442187,9.93554688 452.610156,9.38867188 455.325,9.38867188 C458.078906,9.38867188 460.295703,10.0527344 461.975391,11.3808594 C463.655078,12.7089844 464.494922,14.4765625 464.494922,16.6835938 L464.494922,16.6835938 L468.010547,16.6835938 C468.010547,13.6757812 466.828906,11.2099609 464.465625,9.28613281 C462.102344,7.36230469 459.065234,6.40039062 455.354297,6.40039062 C451.662891,6.40039062 448.664844,7.23046875 446.360156,8.890625 C444.055469,10.5507812 442.903125,12.6992188 442.903125,15.3359375 C442.903125,16.9765625 443.308398,18.3974609 444.118945,19.5986328 C444.929492,20.7998047 446.164844,21.8496094 447.825,22.7480469 C449.485156,23.6464844 452.068164,24.5400391 455.574023,25.4287109 C459.079883,26.3173828 461.477344,27.2890625 462.766406,28.34375 C464.055469,29.3984375 464.7,30.7949219 464.7,32.5332031 C464.7,34.3300781 463.865039,35.7802734 462.195117,36.8837891 C460.525195,37.9873047 458.303516,38.5390625 455.530078,38.5390625 C452.366016,38.5390625 449.861133,37.8798828 448.01543,36.5615234 C446.169727,35.2431641 445.246875,33.421875 445.246875,31.0976562 L445.246875,31.0976562 L441.73125,31.0976562 C441.73125,33.2460938 442.331836,35.0966797 443.533008,36.6494141 C444.73418,38.2021484 446.389453,39.3935547 448.498828,40.2236328 C450.608203,41.0537109 452.951953,41.46875 455.530078,41.46875 Z M495.704297,41 L495.704297,29.1347656 L500.714063,24.4765625 L515.157422,41 L519.493359,41 L503.233594,22.0742188 L518.262891,6.86914062 L513.839063,6.86914062 L500.567578,19.9355469 L495.704297,24.8867188 L495.704297,6.86914062 L492.217969,6.86914062 L492.217969,41 L495.704297,41 Z M529.648828,41 L529.648828,27.2890625 L540.019922,27.2890625 L548.603906,41 L552.353906,41 L552.353906,40.7070312 L543.330469,26.4980469 C545.576563,25.8730469 547.383203,24.7255859 548.750391,23.0556641 C550.117578,21.3857422 550.801172,19.4277344 550.801172,17.1816406 C550.801172,13.9785156 549.692773,11.4589844 547.475977,9.62304688 C545.25918,7.78710938 542.187891,6.86914062 538.262109,6.86914062 L538.262109,6.86914062 L526.1625,6.86914062 L526.1625,41 L529.648828,41 Z M538.906641,24.3007812 L529.648828,24.3007812 L529.648828,9.88671875 L538.35,9.88671875 C541.1625,9.90625 543.354883,10.5703125 544.927148,11.8789062 C546.499414,13.1875 547.285547,14.984375 547.285547,17.2695312 C547.285547,19.3398438 546.523828,21.0292969 545.000391,22.3378906 C543.476953,23.6464844 541.445703,24.3007812 538.906641,24.3007812 L538.906641,24.3007812 Z M584.775,41 L584.775,38.0410156 L562.685156,38.0410156 L584.013281,9.2421875 L584.013281,6.86914062 L558.817969,6.86914062 L558.817969,9.88671875 L579.472266,9.88671875 L558.202734,38.5390625 L558.202734,41 L584.775,41 Z M605.565234,41 L605.565234,28.6074219 L618.719531,6.86914062 L614.705859,6.86914062 L603.836719,25.5019531 L592.996875,6.86914062 L588.983203,6.86914062 L602.049609,28.4609375 L602.049609,41 L605.565234,41 Z M636.785156,41.46875 C640.554688,41.46875 643.616211,40.6582031 645.969727,39.0371094 C648.323242,37.4160156 649.5,35.2382812 649.5,32.5039062 C649.5,30.7851562 649.070313,29.2861328 648.210938,28.0068359 C647.351563,26.7275391 646.077148,25.6289062 644.387695,24.7109375 C642.698242,23.7929688 640.198242,22.9140625 636.887695,22.0742188 C633.577148,21.234375 631.208984,20.3017578 629.783203,19.2763672 C628.357422,18.2509766 627.644531,16.9277344 627.644531,15.3066406 C627.644531,13.5488281 628.455078,12.1230469 630.076172,11.0292969 C631.697266,9.93554688 633.865234,9.38867188 636.580078,9.38867188 C639.333984,9.38867188 641.550781,10.0527344 643.230469,11.3808594 C644.910156,12.7089844 645.75,14.4765625 645.75,16.6835938 L645.75,16.6835938 L649.265625,16.6835938 C649.265625,13.6757812 648.083984,11.2099609 645.720703,9.28613281 C643.357422,7.36230469 640.320313,6.40039062 636.609375,6.40039062 C632.917969,6.40039062 629.919922,7.23046875 627.615234,8.890625 C625.310547,10.5507812 624.158203,12.6992188 624.158203,15.3359375 C624.158203,16.9765625 624.563477,18.3974609 625.374023,19.5986328 C626.18457,20.7998047 627.419922,21.8496094 629.080078,22.7480469 C630.740234,23.6464844 633.323242,24.5400391 636.829102,25.4287109 C640.334961,26.3173828 642.732422,27.2890625 644.021484,28.34375 C645.310547,29.3984375 645.955078,30.7949219 645.955078,32.5332031 C645.955078,34.3300781 645.120117,35.7802734 643.450195,36.8837891 C641.780273,37.9873047 639.558594,38.5390625 636.785156,38.5390625 C633.621094,38.5390625 631.116211,37.8798828 629.270508,36.5615234 C627.424805,35.2431641 626.501953,33.421875 626.501953,31.0976562 L626.501953,31.0976562 L622.986328,31.0976562 C622.986328,33.2460938 623.586914,35.0966797 624.788086,36.6494141 C625.989258,38.2021484 627.644531,39.3935547 629.753906,40.2236328 C631.863281,41.0537109 634.207031,41.46875 636.785156,41.46875 Z M681.716016,41 L681.716016,38.0410156 L659.626172,38.0410156 L680.954297,9.2421875 L680.954297,6.86914062 L655.758984,6.86914062 L655.758984,9.88671875 L676.413281,9.88671875 L655.14375,38.5390625 L655.14375,41 L681.716016,41 Z M702.50625,41 L702.50625,9.88671875 L714.986719,9.88671875 L714.986719,6.86914062 L686.56875,6.86914062 L686.56875,9.88671875 L699.019922,9.88671875 L699.019922,41 L702.50625,41 Z M735.191016,41.46875 C739.566016,41.46875 743.052344,40.0332031 745.65,37.1621094 C748.247656,34.2910156 749.546484,30.453125 749.546484,25.6484375 L749.546484,25.6484375 L749.546484,21.6933594 C749.429297,17.0253906 748.057227,13.3095703 745.430273,10.5458984 C742.80332,7.78222656 739.370703,6.40039062 735.132422,6.40039062 C732.300391,6.40039062 729.785742,7.05957031 727.588477,8.37792969 C725.391211,9.69628906 723.706641,11.5566406 722.534766,13.9589844 C721.362891,16.3613281 720.776953,19.1347656 720.776953,22.2792969 L720.776953,22.2792969 L720.776953,25.5019531 C720.776953,30.3652344 722.09043,34.2421875 724.717383,37.1328125 C727.344336,40.0234375 730.835547,41.46875 735.191016,41.46875 Z M735.191016,38.4511719 C731.831641,38.4511719 729.165625,37.3085938 727.192969,35.0234375 C725.220313,32.7382812 724.233984,29.6132812 724.233984,25.6484375 L724.233984,25.6484375 L724.233984,22.3964844 C724.233984,18.2949219 725.21543,15.1162109 727.17832,12.8603516 C729.141211,10.6044922 731.792578,9.4765625 735.132422,9.4765625 C738.511328,9.4765625 741.182227,10.6044922 743.145117,12.8603516 C745.108008,15.1162109 746.089453,18.2363281 746.089453,22.2207031 L746.089453,22.2207031 L746.089453,25.53125 C746.089453,29.6132812 745.122656,32.7871094 743.189063,35.0527344 C741.255469,37.3183594 738.589453,38.4511719 735.191016,38.4511719 Z M762.075,41 L762.075,25.3847656 L778.979297,25.3847656 L778.979297,22.3964844 L762.075,22.3964844 L762.075,9.88671875 L781.440234,9.88671875 L781.440234,6.86914062 L758.588672,6.86914062 L758.588672,41 L762.075,41 Z" id="MYNAMEISKRZYSZTOF" fill-rule="nonzero"></path>
                    <path d="M174.716309,126 L174.716309,87.887207 L170.790527,87.887207 L170.790527,126 L174.716309,126 Z M222.068297,126.523438 C226.452086,126.523438 229.968932,125.443848 232.618834,123.284668 C235.268736,121.125488 236.822691,118.028483 237.280699,113.993652 L237.280699,113.993652 L233.354918,113.993652 C232.94053,117.090658 231.833678,119.402507 230.034361,120.929199 C228.235045,122.455892 225.57969,123.219238 222.068297,123.219238 C218.469664,123.219238 215.628925,121.965169 213.54608,119.457031 C211.463235,116.948893 210.421812,113.52474 210.421812,109.18457 L210.421812,109.18457 L210.421812,104.866211 C210.421812,100.416992 211.479592,96.9492188 213.595152,94.4628906 C215.710712,91.9765625 218.600523,90.7333984 222.264586,90.7333984 C225.732359,90.7333984 228.349547,91.5349121 230.116148,93.1379395 C231.88275,94.7409668 232.96234,97.0255534 233.354918,99.9916992 L233.354918,99.9916992 L237.280699,99.9916992 C236.822691,95.9568685 235.295999,92.8435059 232.700621,90.6516113 C230.105243,88.4597168 226.626565,87.3637695 222.264586,87.3637695 C219.123961,87.3637695 216.365009,88.0780436 213.98773,89.5065918 C211.610452,90.93514 209.772968,92.9743652 208.475279,95.6242676 C207.17759,98.2741699 206.528746,101.322103 206.528746,104.768066 L206.528746,104.768066 L206.528746,108.955566 C206.528746,114.42985 207.962747,118.7264 210.830748,121.845215 C213.698749,124.96403 217.444599,126.523438 222.068297,126.523438 Z M248.279691,126 L252.336332,115.825684 L270.820219,115.825684 L274.844145,126 L278.86807,126 L263.492094,87.887207 L259.729887,87.887207 L244.223051,126 L248.279691,126 Z M269.47891,112.48877 L253.644926,112.48877 L261.594633,92.5654297 L269.47891,112.48877 Z M291.699094,126 L291.699094,94.0375977 L314.664914,126 L318.55798,126 L318.55798,87.887207 L314.664914,87.887207 L314.664914,119.849609 L291.699094,87.887207 L287.806027,87.887207 L287.806027,126 L291.699094,126 Z M354.983211,126 L354.983211,108.857422 L377.785457,108.857422 L377.785457,126 L381.678523,126 L381.678523,87.887207 L377.785457,87.887207 L377.785457,105.520508 L354.983211,105.520508 L354.983211,87.887207 L351.090145,87.887207 L351.090145,126 L354.983211,126 Z M420.517848,126 L420.517848,122.695801 L398.762477,122.695801 L398.762477,107.908691 L417.638941,107.908691 L417.638941,104.571777 L398.762477,104.571777 L398.762477,91.2568359 L420.386988,91.2568359 L420.386988,87.887207 L394.86941,87.887207 L394.86941,126 L420.517848,126 Z M454.580805,126 L454.580805,122.695801 L434.55932,122.695801 L434.55932,87.887207 L430.666254,87.887207 L430.666254,126 L454.580805,126 Z M468.066125,126 L468.066125,110.853027 L478.404016,110.853027 C482.787805,110.831217 486.190148,109.827962 488.611047,107.843262 C491.031945,105.858561 492.242395,103.077799 492.242395,99.5009766 C492.242395,95.9459635 490.99923,93.121582 488.512902,91.027832 C486.026574,88.934082 482.613326,87.887207 478.273156,87.887207 L478.273156,87.887207 L464.173059,87.887207 L464.173059,126 L468.066125,126 Z M478.273156,107.516113 L468.066125,107.516113 L468.066125,91.2568359 L478.305871,91.2568359 C481.424686,91.2568359 483.867395,91.9983724 485.633996,93.4814453 C487.400598,94.9645182 488.283898,96.9928385 488.283898,99.5664062 C488.283898,102.096354 487.416955,104.053792 485.683068,105.438721 C483.949182,106.823649 481.479211,107.516113 478.273156,107.516113 L478.273156,107.516113 Z M536.388328,126 L536.388328,91.2568359 L550.324852,91.2568359 L550.324852,87.887207 L518.591453,87.887207 L518.591453,91.2568359 L532.495262,91.2568359 L532.495262,126 L536.388328,126 Z M574.377066,126.523438 C579.262483,126.523438 583.155549,124.92041 586.056266,121.714355 C588.956982,118.508301 590.40734,114.222656 590.40734,108.857422 L590.40734,108.857422 L590.40734,104.440918 C590.27648,99.2283529 588.744335,95.0790202 585.810904,91.9929199 C582.877473,88.9068197 579.044384,87.3637695 574.311637,87.3637695 C571.149202,87.3637695 568.341178,88.0998535 565.887564,89.5720215 C563.433951,91.0441895 561.552848,93.121582 560.244254,95.8041992 C558.93566,98.4868164 558.281363,101.583822 558.281363,105.095215 L558.281363,105.095215 L558.281363,108.693848 C558.281363,114.124512 559.748079,118.453776 562.68151,121.681641 C565.614941,124.909505 569.51346,126.523438 574.377066,126.523438 Z M574.377066,123.153809 C570.625764,123.153809 567.648714,121.87793 565.445914,119.326172 C563.243115,116.774414 562.141715,113.284831 562.141715,108.857422 L562.141715,108.857422 L562.141715,105.226074 C562.141715,100.645996 563.237662,97.0964355 565.429557,94.5773926 C567.621451,92.0583496 570.582145,90.7988281 574.311637,90.7988281 C578.084749,90.7988281 581.067252,92.0583496 583.259146,94.5773926 C585.451041,97.0964355 586.546988,100.580566 586.546988,105.029785 L586.546988,105.029785 L586.546988,108.726562 C586.546988,113.284831 585.467398,116.828939 583.308219,119.358887 C581.149039,121.888835 578.171988,123.153809 574.377066,123.153809 Z M625.262258,126 L625.262258,110.39502 L624.902395,92.8598633 L639.754934,126 L642.69927,126 L657.617238,92.6308594 L657.257375,110.39502 L657.257375,126 L661.150441,126 L661.150441,87.887207 L655.948781,87.887207 L641.227102,120.569336 L626.505422,87.887207 L621.369191,87.887207 L621.369191,126 L625.262258,126 Z M674.112324,126 L678.168965,115.825684 L696.652852,115.825684 L700.676777,126 L704.700703,126 L689.324727,87.887207 L685.56252,87.887207 L670.055684,126 L674.112324,126 Z M695.311543,112.48877 L679.477559,112.48877 L687.427266,92.5654297 L695.311543,112.48877 Z M717.531727,126 L717.531727,112.750488 L723.125965,107.548828 L739.254383,126 L744.09618,126 L725.939441,104.866211 L742.722156,87.887207 L737.782215,87.887207 L722.962391,102.478027 L717.531727,108.006836 L717.531727,87.887207 L713.63866,87.887207 L713.63866,126 L717.531727,126 Z M778.748004,126 L778.748004,122.695801 L756.992633,122.695801 L756.992633,107.908691 L775.869098,107.908691 L775.869098,104.571777 L756.992633,104.571777 L756.992633,91.2568359 L778.617145,91.2568359 L778.617145,87.887207 L753.099566,87.887207 L753.099566,126 L778.748004,126 Z" id="ICANHELPTOMAKE" fill-rule="nonzero"></path>
                    <circle id="Oval" cx="64" cy="64" r="64"></circle>
                </g>
            </g>
        </g>
    </g>
</svg>