<?xml version="1.0" encoding="UTF-8"?>
<svg width="73px" height="63px" viewBox="0 0 73 63" version="1.1" xmlns="http://www.w3.org/2000/svg" xmlns:xlink="http://www.w3.org/1999/xlink">
    <!-- Generator: Sketch 61.2 (89653) - https://sketch.com -->
    <title>wordpress</title>
    <desc>Created with Sketch.</desc>
    <g id="Welcome" stroke="none" stroke-width="1" fill="none" fill-rule="evenodd" opacity="0.861653646">
        <g id="Desktop-HD" transform="translate(-270.000000, -1818.000000)" fill="#FFFFFF" fill-rule="nonzero">
            <g id="Ofer" transform="translate(-100.000000, 1597.000000)">
                <g id="Group" transform="translate(348.000000, 194.000000)">
                    <g id="wp3-copy">
                        <g id="icon">
                            <g id="wordpress" transform="translate(22.000000, 27.000000)">
                                <path d="M71.9571836,5.87279599 C70.2625,1.468199 68.4375,0 61.1375,0 C56.7053164,0 53.3160918,3.47027527 53.3160918,8.00845107 C53.3160918,10.4109718 54.6196836,12.6800597 55.9232754,15.0825804 C56.3143672,16.0169021 56.9660918,16.9512239 57.3571836,17.8855456 L57.8785918,18.9533001 C59.0518672,21.3558209 59.8339082,23.0910315 59.8339082,26.6948856 C59.8339082,28.1630846 59.5731328,29.7648624 58.9214082,32.0338043 L58.9214082,32.1672371 L54.6196836,45.3811741 L43.447832,12.9708673 C43.8258066,12.9209395 44.2039238,12.8688219 44.5821836,12.8134925 C46.667959,12.8134925 48.3625,10.9448491 48.3625,8.80919399 C48.3625,6.54010608 46.6678164,4.80489546 44.4517246,4.80489546 C44.3214082,4.80489546 44.3214082,4.80489546 44.1909492,4.80489546 C39.107041,5.60578436 34.0231328,5.60578436 28.9392246,4.80489546 C28.8089082,4.80489546 28.8089082,4.80489546 28.6784492,4.80489546 C26.4623574,4.80489546 24.7676738,6.54010608 24.7676738,8.80919399 C24.7678164,10.9448491 26.4625,12.8134925 28.5482754,12.8134925 C28.9849922,12.8805009 29.4262715,12.9422537 29.8691191,13.0012328 L35.1964082,26.8283184 L28.6785918,46.4490746 L16.9454102,12.8362666 C16.9891816,12.8285293 17.0329531,12.8215218 17.0767246,12.8134925 C19.1625,12.6800597 20.857041,10.9448491 20.857041,8.80919399 C20.857041,6.54010608 19.1623574,4.80489546 16.9462656,4.80489546 C16.8159492,4.80489546 16.8159492,4.80489546 16.6854902,4.80489546 C12.514082,5.60578436 8.34267383,5.60578436 4.17126563,4.80489546 C4.04094922,4.80489546 4.04094922,4.80489546 3.91049023,4.80489546 C1.69468359,4.80504144 0,6.54025207 0,8.80919399 C0,10.9074762 1.63622656,12.6180149 3.67167187,12.8038573 L19.6839082,57.6609353 C20.5964082,60.1968888 22.5517246,62.0655323 25.1589082,62.7329884 C25.8106328,62.8664212 26.3321836,63 26.9839082,63 C30.2428164,63 33.3714082,60.7309121 34.4142246,57.5275025 L41.844541,34.8367695 L49.6659492,57.5275025 C50.3176738,59.3961459 51.6212656,60.7309121 53.0551738,61.2647894 C54.3587656,61.7986666 55.7926738,61.6652338 57.0962656,60.9977777 C58.7909492,60.3304676 60.094541,58.8621227 60.6159492,57.127058 L70.2625,27.4956285 C72.4785918,21.7562653 73,16.6842122 73,13.4808026 L73,11.3451475 C73,9.47665007 72.7392246,7.60800662 71.9571836,5.87279599 Z M28.6255926,10.3375718 C27.844622,10.3375718 27.3240223,9.80470195 27.3240223,9.00532435 C27.3240223,8.33927349 27.844622,7.67307692 28.4954783,7.67307692 C33.8318735,8.60563555 39.0380121,8.60563555 44.5045217,7.67307692 C45.1552357,7.67307692 45.6759777,8.33912778 45.6759777,9.00532435 C45.6759777,9.80470195 45.155378,10.3375718 44.3744074,10.3375718 C44.2442931,10.3375718 44.2442931,10.3375718 44.1140364,10.3375718 C43.3396142,10.459533 42.5653344,10.5605116 41.7909122,10.6453161 C41.6613673,10.6179222 41.5244199,10.6040796 41.3807816,10.6040796 C37.8665562,11.0037684 34.3524732,11.0037684 30.8382478,10.6040796 C30.8358277,10.6040796 30.8332653,10.604371 30.8308452,10.604371 C30.1825513,10.5283092 29.5342574,10.4397161 28.8859636,10.3375718 C28.7557069,10.3375718 28.7557069,10.3375718 28.6255926,10.3375718 Z M2.8547486,8.99206361 C2.8547486,8.3326424 3.37129862,7.67307692 4.01709207,7.67307692 C8.40797908,8.59635318 12.7987248,8.59635318 17.1896118,7.67307692 C17.835264,7.67307692 18.3519553,8.33249813 18.3519553,8.99206361 C18.3519553,9.78348447 17.8354053,10.3110503 17.0605096,10.3110503 C16.9314075,10.3110503 16.9314075,10.3110503 16.802164,10.3110503 C16.2678165,10.413332 15.7334691,10.5019088 15.1991216,10.5777906 C15.1739792,10.5766365 15.1488367,10.5749053 15.1232705,10.5749053 C14.9075823,10.6101052 14.6911878,10.6425642 14.4743696,10.6731477 C11.4601018,11.0336582 8.44597524,10.9710486 5.43170744,10.4895023 C5.34752264,10.4737777 5.26333785,10.4594958 5.1792943,10.4430499 C5.16799432,10.4430499 5.15669435,10.4440598 5.14539438,10.444204 C4.89834872,10.4025123 4.65144431,10.3585125 4.40439865,10.3111946 C4.27529646,10.3111946 4.27529646,10.3111946 4.14605302,10.3111946 C3.37129862,10.3110503 2.8547486,9.78348447 2.8547486,8.99206361 Z M70.1452514,13.625887 C70.1452514,16.5589029 69.7540541,21.3585558 67.6678589,26.6913253 L57.888498,56.2884801 C57.4973007,57.3550049 56.7149062,58.1549713 55.6718086,58.5549545 C55.0199083,58.8216586 54.3678653,58.9549378 53.7159649,58.6882337 C52.9335704,58.4215296 52.1513185,57.6217089 51.7601213,56.5550384 L42.6326607,30.4241618 C42.5023091,29.8908994 41.9807603,29.4909162 41.4590689,29.4909162 C40.9375201,29.4909162 40.4159713,29.8908994 40.2854771,30.4241618 L31.8099169,56.5551842 C31.0275224,59.0882169 28.2892842,60.6881498 25.6815402,60.0214625 C23.9863996,59.6214793 22.6824563,58.4216754 22.030556,56.6884634 L6.52513966,13.2575466 C7.7818769,13.4046786 9.03847151,13.4926078 10.2952087,13.4926078 C11.6008635,13.4926078 12.9065182,13.3982625 14.2120303,13.2404857 L27.5068897,50.9557107 C27.6372412,51.488973 28.1587901,51.8889563 28.6804815,51.8889563 C29.2020303,51.8889563 29.7235791,51.488973 29.8540732,50.9557107 L37.6775905,27.2245876 C37.8079421,26.9578835 37.8079421,26.5580461 37.6775905,26.291342 L32.7651627,13.3378932 C33.9785445,13.4353007 35.1896444,13.4926078 36.3736472,13.4926078 C37.7825563,13.4926078 39.2302571,13.4128445 40.6947867,13.2781072 L53.4549766,49.8891859 C53.5853282,50.4224483 54.106877,50.8224315 54.6285684,50.8224315 C55.1502598,50.8224315 55.671666,50.4224483 55.8021602,49.8891859 L61.2786365,33.2240444 C61.4089881,33.0907653 61.4089881,33.0907653 61.4089881,32.9573403 C62.1913826,30.4243076 62.4520857,28.4243915 62.4520857,26.8246044 C62.4520857,22.5583597 61.4089881,20.4251644 60.2353963,17.8921317 L59.7138475,16.825607 C59.1922987,15.8923614 58.6707499,14.8258366 58.1492011,13.8925911 C56.9756093,11.8926749 55.9325117,9.89290459 55.9325117,8.15969254 C55.9325117,4.69341426 58.6707499,2.82692308 61.1481424,2.82692308 C67.928562,2.82692308 68.4501108,4.1601519 69.3628569,6.95988868 C69.8844057,8.2931175 70.1452514,9.75962545 70.1452514,11.3594125 L70.1452514,13.625887 Z" id="Shape" opacity="0.998604911"></path>
                            </g>
                        </g>
                    </g>
                </g>
            </g>
        </g>
    </g>
</svg>